<?xml version="1.0" encoding="utf-8"?>
<!-- Generator: Adobe Illustrator 23.0.3, SVG Export Plug-In . SVG Version: 6.00 Build 0)  -->
<svg version="1.1" id="Layer_1" xmlns="http://www.w3.org/2000/svg" xmlns:xlink="http://www.w3.org/1999/xlink" x="0px" y="0px"
	 viewBox="0 0 102 150" style="enable-background:new 0 0 102 150;" xml:space="preserve">
	 <g>
<path d="M45.362 11.4334C48.5196 11.4334 51.0793 8.87393 51.0793 5.71669C51.0793 2.55945 48.5196 0 45.362 0C42.2045 0 39.6448 2.55945 39.6448 5.71669C39.6448 8.87393 42.2045 11.4334 45.362 11.4334Z" fill="#F55441"/>
		 <path d="M56.9105 11.4334C60.0681 11.4334 62.6278 8.87393 62.6278 5.71669C62.6278 2.55945 60.0681 0 56.9105 0C53.7529 0 51.1932 2.55945 51.1932 5.71669C51.1932 8.87393 53.7529 11.4334 56.9105 11.4334Z" fill="#F55441"/>
		 <path d="M68.4591 11.4334C71.6167 11.4334 74.1764 8.87393 74.1764 5.71669C74.1764 2.55945 71.6167 0 68.4591 0C65.3015 0 62.7418 2.55945 62.7418 5.71669C62.7418 8.87393 65.3015 11.4334 68.4591 11.4334Z" fill="#F55441"/>
		 <path d="M80.0071 11.4334C83.1647 11.4334 85.7244 8.87393 85.7244 5.71669C85.7244 2.55945 83.1647 0 80.0071 0C76.8495 0 74.2898 2.55945 74.2898 5.71669C74.2898 8.87393 76.8495 11.4334 80.0071 11.4334Z" fill="#F55441"/>
		 <path d="M91.5557 11.4334C94.7132 11.4334 97.2729 8.87393 97.2729 5.71669C97.2729 2.55945 94.7132 0 91.5557 0C88.3981 0 85.8384 2.55945 85.8384 5.71669C85.8384 8.87393 88.3981 11.4334 91.5557 11.4334Z" fill="#F55441"/>
		 <path d="M33.8138 20.6266C35.6712 20.6266 37.1769 19.1211 37.1769 17.2639C37.1769 15.4067 35.6712 13.9011 33.8138 13.9011C31.9564 13.9011 30.4507 15.4067 30.4507 17.2639C30.4507 19.1211 31.9564 20.6266 33.8138 20.6266Z" fill="#F55441"/>
		 <path d="M45.362 22.9806C48.5196 22.9806 51.0793 20.4211 51.0793 17.2639C51.0793 14.1066 48.5196 11.5472 45.362 11.5472C42.2045 11.5472 39.6448 14.1066 39.6448 17.2639C39.6448 20.4211 42.2045 22.9806 45.362 22.9806Z" fill="#F55441"/>
		 <path d="M56.9105 22.9806C60.0681 22.9806 62.6278 20.4211 62.6278 17.2639C62.6278 14.1066 60.0681 11.5472 56.9105 11.5472C53.7529 11.5472 51.1932 14.1066 51.1932 17.2639C51.1932 20.4211 53.7529 22.9806 56.9105 22.9806Z" fill="#F55441"/>
		 <path d="M68.4591 22.9806C71.6167 22.9806 74.1764 20.4211 74.1764 17.2639C74.1764 14.1066 71.6167 11.5472 68.4591 11.5472C65.3015 11.5472 62.7418 14.1066 62.7418 17.2639C62.7418 20.4211 65.3015 22.9806 68.4591 22.9806Z" fill="#F55441"/>
		 <path d="M80.0071 22.9806C83.1647 22.9806 85.7244 20.4211 85.7244 17.2639C85.7244 14.1066 83.1647 11.5472 80.0071 11.5472C76.8495 11.5472 74.2898 14.1066 74.2898 17.2639C74.2898 20.4211 76.8495 22.9806 80.0071 22.9806Z" fill="#F55441"/>
		 <path d="M22.2656 32.1739C24.123 32.1739 25.6287 30.6683 25.6287 28.8111C25.6287 26.9539 24.123 25.4484 22.2656 25.4484C20.4082 25.4484 18.9025 26.9539 18.9025 28.8111C18.9025 30.6683 20.4082 32.1739 22.2656 32.1739Z" fill="#F55441"/>
		 <path d="M33.8138 32.1739C35.6712 32.1739 37.1769 30.6683 37.1769 28.8111C37.1769 26.9539 35.6712 25.4484 33.8138 25.4484C31.9564 25.4484 30.4507 26.9539 30.4507 28.8111C30.4507 30.6683 31.9564 32.1739 33.8138 32.1739Z" fill="#F55441"/>
		 <path d="M45.362 34.5279C48.5196 34.5279 51.0793 31.9684 51.0793 28.8112C51.0793 25.6539 48.5196 23.0945 45.362 23.0945C42.2045 23.0945 39.6448 25.6539 39.6448 28.8112C39.6448 31.9684 42.2045 34.5279 45.362 34.5279Z" fill="#F55441"/>
		 <path d="M56.9105 34.5279C60.0681 34.5279 62.6278 31.9684 62.6278 28.8112C62.6278 25.6539 60.0681 23.0945 56.9105 23.0945C53.7529 23.0945 51.1932 25.6539 51.1932 28.8112C51.1932 31.9684 53.7529 34.5279 56.9105 34.5279Z" fill="#F55441"/>
		 <path d="M68.4591 34.5279C71.6167 34.5279 74.1764 31.9684 74.1764 28.8112C74.1764 25.6539 71.6167 23.0945 68.4591 23.0945C65.3015 23.0945 62.7418 25.6539 62.7418 28.8112C62.7418 31.9684 65.3015 34.5279 68.4591 34.5279Z" fill="#F55441"/>
		 <path d="M10.717 43.7211C12.5744 43.7211 14.0801 42.2156 14.0801 40.3584C14.0801 38.5012 12.5744 36.9956 10.717 36.9956C8.85959 36.9956 7.35388 38.5012 7.35388 40.3584C7.35388 42.2156 8.85959 43.7211 10.717 43.7211Z" fill="#F55441"/>
		 <path d="M22.2656 43.7211C24.123 43.7211 25.6287 42.2156 25.6287 40.3584C25.6287 38.5012 24.123 36.9956 22.2656 36.9956C20.4082 36.9956 18.9025 38.5012 18.9025 40.3584C18.9025 42.2156 20.4082 43.7211 22.2656 43.7211Z" fill="#F55441"/>
		 <path d="M33.8138 43.7211C35.6712 43.7211 37.1769 42.2156 37.1769 40.3584C37.1769 38.5012 35.6712 36.9956 33.8138 36.9956C31.9564 36.9956 30.4507 38.5012 30.4507 40.3584C30.4507 42.2156 31.9564 43.7211 33.8138 43.7211Z" fill="#F55441"/>
		 <path d="M45.362 46.075C48.5196 46.075 51.0793 43.5155 51.0793 40.3583C51.0793 37.2011 48.5196 34.6416 45.362 34.6416C42.2045 34.6416 39.6448 37.2011 39.6448 40.3583C39.6448 43.5155 42.2045 46.075 45.362 46.075Z" fill="#F55441"/>
		 <path d="M56.9105 46.075C60.0681 46.075 62.6278 43.5155 62.6278 40.3583C62.6278 37.2011 60.0681 34.6416 56.9105 34.6416C53.7529 34.6416 51.1932 37.2011 51.1932 40.3583C51.1932 43.5155 53.7529 46.075 56.9105 46.075Z" fill="#F55441"/>
		 <path d="M10.717 55.2683C12.5744 55.2683 14.0801 53.7628 14.0801 51.9055C14.0801 50.0483 12.5744 48.5428 10.717 48.5428C8.85959 48.5428 7.35388 50.0483 7.35388 51.9055C7.35388 53.7628 8.85959 55.2683 10.717 55.2683Z" fill="#F55441"/>
		 <path d="M22.2656 55.2683C24.123 55.2683 25.6287 53.7628 25.6287 51.9055C25.6287 50.0483 24.123 48.5428 22.2656 48.5428C20.4082 48.5428 18.9025 50.0483 18.9025 51.9055C18.9025 53.7628 20.4082 55.2683 22.2656 55.2683Z" fill="#F55441"/>
		 <path d="M33.8138 55.2683C35.6712 55.2683 37.1769 53.7628 37.1769 51.9055C37.1769 50.0483 35.6712 48.5428 33.8138 48.5428C31.9564 48.5428 30.4507 50.0483 30.4507 51.9055C30.4507 53.7628 31.9564 55.2683 33.8138 55.2683Z" fill="#F55441"/>
		 <path d="M45.362 57.6223C48.5196 57.6223 51.0793 55.0628 51.0793 51.9056C51.0793 48.7484 48.5196 46.1889 45.362 46.1889C42.2045 46.1889 39.6448 48.7484 39.6448 51.9056C39.6448 55.0628 42.2045 57.6223 45.362 57.6223Z" fill="#F55441"/>
		 <path d="M10.717 66.8156C12.5744 66.8156 14.0801 65.31 14.0801 63.4528C14.0801 61.5956 12.5744 60.0901 10.717 60.0901C8.85959 60.0901 7.35388 61.5956 7.35388 63.4528C7.35388 65.31 8.85959 66.8156 10.717 66.8156Z" fill="#F55441"/>
		 <path d="M22.2656 66.8156C24.123 66.8156 25.6287 65.31 25.6287 63.4528C25.6287 61.5956 24.123 60.0901 22.2656 60.0901C20.4082 60.0901 18.9025 61.5956 18.9025 63.4528C18.9025 65.31 20.4082 66.8156 22.2656 66.8156Z" fill="#F55441"/>
		 <path d="M33.8138 66.8156C35.6712 66.8156 37.1769 65.31 37.1769 63.4528C37.1769 61.5956 35.6712 60.0901 33.8138 60.0901C31.9564 60.0901 30.4507 61.5956 30.4507 63.4528C30.4507 65.31 31.9564 66.8156 33.8138 66.8156Z" fill="#F55441"/>
		 <path d="M45.362 69.1695C48.5196 69.1695 51.0793 66.61 51.0793 63.4528C51.0793 60.2955 48.5196 57.7361 45.362 57.7361C42.2045 57.7361 39.6448 60.2955 39.6448 63.4528C39.6448 66.61 42.2045 69.1695 45.362 69.1695Z" fill="#F55441"/>
		 <path d="M56.9105 69.1695C60.0681 69.1695 62.6278 66.61 62.6278 63.4528C62.6278 60.2955 60.0681 57.7361 56.9105 57.7361C53.7529 57.7361 51.1932 60.2955 51.1932 63.4528C51.1932 66.61 53.7529 69.1695 56.9105 69.1695Z" fill="#F55441"/>
		 <path d="M68.4591 69.1695C71.6167 69.1695 74.1764 66.61 74.1764 63.4528C74.1764 60.2955 71.6167 57.7361 68.4591 57.7361C65.3015 57.7361 62.7418 60.2955 62.7418 63.4528C62.7418 66.61 65.3015 69.1695 68.4591 69.1695Z" fill="#F55441"/>
		 <path d="M80.0071 69.1695C83.1647 69.1695 85.7244 66.61 85.7244 63.4528C85.7244 60.2955 83.1647 57.7361 80.0071 57.7361C76.8495 57.7361 74.2898 60.2955 74.2898 63.4528C74.2898 66.61 76.8495 69.1695 80.0071 69.1695Z" fill="#F55441"/>
		 <path d="M91.5557 69.1695C94.7132 69.1695 97.2729 66.61 97.2729 63.4528C97.2729 60.2955 94.7132 57.7361 91.5557 57.7361C88.3981 57.7361 85.8384 60.2955 85.8384 63.4528C85.8384 66.61 88.3981 69.1695 91.5557 69.1695Z" fill="#F55441"/>
		 <path d="M10.717 78.3627C12.5744 78.3627 14.0801 76.8572 14.0801 75C14.0801 73.1428 12.5744 71.6372 10.717 71.6372C8.85959 71.6372 7.35388 73.1428 7.35388 75C7.35388 76.8572 8.85959 78.3627 10.717 78.3627Z" fill="#F55441"/>
		 <path d="M22.2656 78.3627C24.123 78.3627 25.6287 76.8572 25.6287 75C25.6287 73.1428 24.123 71.6372 22.2656 71.6372C20.4082 71.6372 18.9025 73.1428 18.9025 75C18.9025 76.8572 20.4082 78.3627 22.2656 78.3627Z" fill="#F55441"/>
		 <path d="M33.8138 78.3627C35.6712 78.3627 37.1769 76.8572 37.1769 75C37.1769 73.1428 35.6712 71.6372 33.8138 71.6372C31.9564 71.6372 30.4507 73.1428 30.4507 75C30.4507 76.8572 31.9564 78.3627 33.8138 78.3627Z" fill="#F55441"/>
		 <path d="M45.362 80.7166C48.5196 80.7166 51.0793 78.1572 51.0793 74.9999C51.0793 71.8427 48.5196 69.2832 45.362 69.2832C42.2045 69.2832 39.6448 71.8427 39.6448 74.9999C39.6448 78.1572 42.2045 80.7166 45.362 80.7166Z" fill="#F55441"/>
		 <path d="M56.9105 80.7166C60.0681 80.7166 62.6278 78.1572 62.6278 74.9999C62.6278 71.8427 60.0681 69.2832 56.9105 69.2832C53.7529 69.2832 51.1932 71.8427 51.1932 74.9999C51.1932 78.1572 53.7529 80.7166 56.9105 80.7166Z" fill="#F55441"/>
		 <path d="M68.4591 80.7166C71.6167 80.7166 74.1764 78.1572 74.1764 74.9999C74.1764 71.8427 71.6167 69.2832 68.4591 69.2832C65.3015 69.2832 62.7418 71.8427 62.7418 74.9999C62.7418 78.1572 65.3015 80.7166 68.4591 80.7166Z" fill="#F55441"/>
		 <path d="M80.0071 80.7166C83.1647 80.7166 85.7244 78.1572 85.7244 74.9999C85.7244 71.8427 83.1647 69.2832 80.0071 69.2832C76.8495 69.2832 74.2898 71.8427 74.2898 74.9999C74.2898 78.1572 76.8495 80.7166 80.0071 80.7166Z" fill="#F55441"/>
		 <path d="M10.717 89.9099C12.5744 89.9099 14.0801 88.4044 14.0801 86.5471C14.0801 84.6899 12.5744 83.1844 10.717 83.1844C8.85959 83.1844 7.35388 84.6899 7.35388 86.5471C7.35388 88.4044 8.85959 89.9099 10.717 89.9099Z" fill="#F55441"/>
		 <path d="M22.2656 89.9099C24.123 89.9099 25.6287 88.4044 25.6287 86.5471C25.6287 84.6899 24.123 83.1844 22.2656 83.1844C20.4082 83.1844 18.9025 84.6899 18.9025 86.5471C18.9025 88.4044 20.4082 89.9099 22.2656 89.9099Z" fill="#F55441"/>
		 <path d="M33.8138 89.9099C35.6712 89.9099 37.1769 88.4044 37.1769 86.5471C37.1769 84.6899 35.6712 83.1844 33.8138 83.1844C31.9564 83.1844 30.4507 84.6899 30.4507 86.5471C30.4507 88.4044 31.9564 89.9099 33.8138 89.9099Z" fill="#F55441"/>
		 <path d="M45.362 92.2639C48.5196 92.2639 51.0793 89.7044 51.0793 86.5472C51.0793 83.3899 48.5196 80.8305 45.362 80.8305C42.2045 80.8305 39.6448 83.3899 39.6448 86.5472C39.6448 89.7044 42.2045 92.2639 45.362 92.2639Z" fill="#F55441"/>
		 <path d="M56.9105 92.2639C60.0681 92.2639 62.6278 89.7044 62.6278 86.5472C62.6278 83.3899 60.0681 80.8305 56.9105 80.8305C53.7529 80.8305 51.1932 83.3899 51.1932 86.5472C51.1932 89.7044 53.7529 92.2639 56.9105 92.2639Z" fill="#F55441"/>
		 <path d="M68.4591 92.2639C71.6167 92.2639 74.1764 89.7044 74.1764 86.5472C74.1764 83.3899 71.6167 80.8305 68.4591 80.8305C65.3015 80.8305 62.7418 83.3899 62.7418 86.5472C62.7418 89.7044 65.3015 92.2639 68.4591 92.2639Z" fill="#F55441"/>
		 <path d="M10.717 101.457C12.5744 101.457 14.0801 99.9516 14.0801 98.0944C14.0801 96.2372 12.5744 94.7316 10.717 94.7316C8.85959 94.7316 7.35388 96.2372 7.35388 98.0944C7.35388 99.9516 8.85959 101.457 10.717 101.457Z" fill="#F55441"/>
		 <path d="M22.2656 101.457C24.123 101.457 25.6287 99.9516 25.6287 98.0944C25.6287 96.2372 24.123 94.7316 22.2656 94.7316C20.4082 94.7316 18.9025 96.2372 18.9025 98.0944C18.9025 99.9516 20.4082 101.457 22.2656 101.457Z" fill="#F55441"/>
		 <path d="M33.8138 101.457C35.6712 101.457 37.1769 99.9516 37.1769 98.0944C37.1769 96.2372 35.6712 94.7316 33.8138 94.7316C31.9564 94.7316 30.4507 96.2372 30.4507 98.0944C30.4507 99.9516 31.9564 101.457 33.8138 101.457Z" fill="#F55441"/>
		 <path d="M45.362 103.811C48.5196 103.811 51.0793 101.252 51.0793 98.0944C51.0793 94.9371 48.5196 92.3777 45.362 92.3777C42.2045 92.3777 39.6448 94.9371 39.6448 98.0944C39.6448 101.252 42.2045 103.811 45.362 103.811Z" fill="#F55441"/>
		 <path d="M56.9105 103.811C60.0681 103.811 62.6278 101.252 62.6278 98.0944C62.6278 94.9371 60.0681 92.3777 56.9105 92.3777C53.7529 92.3777 51.1932 94.9371 51.1932 98.0944C51.1932 101.252 53.7529 103.811 56.9105 103.811Z" fill="#F55441"/>
		 <path d="M10.717 113.004C12.5744 113.004 14.0801 111.499 14.0801 109.642C14.0801 107.784 12.5744 106.279 10.717 106.279C8.85959 106.279 7.35388 107.784 7.35388 109.642C7.35388 111.499 8.85959 113.004 10.717 113.004Z" fill="#F55441"/>
		 <path d="M22.2656 113.004C24.123 113.004 25.6287 111.499 25.6287 109.642C25.6287 107.784 24.123 106.279 22.2656 106.279C20.4082 106.279 18.9025 107.784 18.9025 109.642C18.9025 111.499 20.4082 113.004 22.2656 113.004Z" fill="#F55441"/>
		 <path d="M33.8138 113.004C35.6712 113.004 37.1769 111.499 37.1769 109.642C37.1769 107.784 35.6712 106.279 33.8138 106.279C31.9564 106.279 30.4507 107.784 30.4507 109.642C30.4507 111.499 31.9564 113.004 33.8138 113.004Z" fill="#F55441"/>
		 <path d="M45.362 115.358C48.5196 115.358 51.0793 112.799 51.0793 109.642C51.0793 106.484 48.5196 103.925 45.362 103.925C42.2045 103.925 39.6448 106.484 39.6448 109.642C39.6448 112.799 42.2045 115.358 45.362 115.358Z" fill="#F55441"/>
		 <path d="M10.717 124.552C12.5744 124.552 14.0801 123.046 14.0801 121.189C14.0801 119.332 12.5744 117.826 10.717 117.826C8.85959 117.826 7.35388 119.332 7.35388 121.189C7.35388 123.046 8.85959 124.552 10.717 124.552Z" fill="#F55441"/>
		 <path d="M22.2656 124.552C24.123 124.552 25.6287 123.046 25.6287 121.189C25.6287 119.332 24.123 117.826 22.2656 117.826C20.4082 117.826 18.9025 119.332 18.9025 121.189C18.9025 123.046 20.4082 124.552 22.2656 124.552Z" fill="#F55441"/>
		 <path d="M33.8138 124.552C35.6712 124.552 37.1769 123.046 37.1769 121.189C37.1769 119.332 35.6712 117.826 33.8138 117.826C31.9564 117.826 30.4507 119.332 30.4507 121.189C30.4507 123.046 31.9564 124.552 33.8138 124.552Z" fill="#F55441"/>
		 <path d="M45.362 126.905C48.5196 126.905 51.0793 124.346 51.0793 121.189C51.0793 118.032 48.5196 115.472 45.362 115.472C42.2045 115.472 39.6448 118.032 39.6448 121.189C39.6448 124.346 42.2045 126.905 45.362 126.905Z" fill="#F55441"/>
		 <path d="M56.9105 126.905C60.0681 126.905 62.6278 124.346 62.6278 121.189C62.6278 118.032 60.0681 115.472 56.9105 115.472C53.7529 115.472 51.1932 118.032 51.1932 121.189C51.1932 124.346 53.7529 126.905 56.9105 126.905Z" fill="#F55441"/>
		 <path d="M68.4591 126.905C71.6167 126.905 74.1764 124.346 74.1764 121.189C74.1764 118.032 71.6167 115.472 68.4591 115.472C65.3015 115.472 62.7418 118.032 62.7418 121.189C62.7418 124.346 65.3015 126.905 68.4591 126.905Z" fill="#F55441"/>
		 <path d="M80.0071 126.905C83.1647 126.905 85.7244 124.346 85.7244 121.189C85.7244 118.032 83.1647 115.472 80.0071 115.472C76.8495 115.472 74.2898 118.032 74.2898 121.189C74.2898 124.346 76.8495 126.905 80.0071 126.905Z" fill="#F55441"/>
		 <path d="M91.5557 126.905C94.7132 126.905 97.2729 124.346 97.2729 121.189C97.2729 118.032 94.7132 115.472 91.5557 115.472C88.3981 115.472 85.8384 118.032 85.8384 121.189C85.8384 124.346 88.3981 126.905 91.5557 126.905Z" fill="#F55441"/>
		 <path d="M10.717 136.099C12.5744 136.099 14.0801 134.593 14.0801 132.736C14.0801 130.879 12.5744 129.373 10.717 129.373C8.85959 129.373 7.35388 130.879 7.35388 132.736C7.35388 134.593 8.85959 136.099 10.717 136.099Z" fill="#F55441"/>
		 <path d="M22.2656 136.099C24.123 136.099 25.6287 134.593 25.6287 132.736C25.6287 130.879 24.123 129.373 22.2656 129.373C20.4082 129.373 18.9025 130.879 18.9025 132.736C18.9025 134.593 20.4082 136.099 22.2656 136.099Z" fill="#F55441"/>
		 <path d="M33.814 138.453C36.9715 138.453 39.5312 135.893 39.5312 132.736C39.5312 129.579 36.9715 127.019 33.814 127.019C30.6564 127.019 28.0967 129.579 28.0967 132.736C28.0967 135.893 30.6564 138.453 33.814 138.453Z" fill="#F55441"/>
		 <path d="M45.362 138.453C48.5196 138.453 51.0793 135.893 51.0793 132.736C51.0793 129.579 48.5196 127.019 45.362 127.019C42.2045 127.019 39.6448 129.579 39.6448 132.736C39.6448 135.893 42.2045 138.453 45.362 138.453Z" fill="#F55441"/>
		 <path d="M56.9105 138.453C60.0681 138.453 62.6278 135.893 62.6278 132.736C62.6278 129.579 60.0681 127.019 56.9105 127.019C53.7529 127.019 51.1932 129.579 51.1932 132.736C51.1932 135.893 53.7529 138.453 56.9105 138.453Z" fill="#F55441"/>
		 <path d="M68.4591 138.453C71.6167 138.453 74.1764 135.893 74.1764 132.736C74.1764 129.579 71.6167 127.019 68.4591 127.019C65.3015 127.019 62.7418 129.579 62.7418 132.736C62.7418 135.893 65.3015 138.453 68.4591 138.453Z" fill="#F55441"/>
		 <path d="M80.0071 138.453C83.1647 138.453 85.7244 135.893 85.7244 132.736C85.7244 129.579 83.1647 127.019 80.0071 127.019C76.8495 127.019 74.2898 129.579 74.2898 132.736C74.2898 135.893 76.8495 138.453 80.0071 138.453Z" fill="#F55441"/>
		 <path d="M10.717 147.646C12.5744 147.646 14.0801 146.14 14.0801 144.283C14.0801 142.426 12.5744 140.92 10.717 140.92C8.85959 140.92 7.35388 142.426 7.35388 144.283C7.35388 146.14 8.85959 147.646 10.717 147.646Z" fill="#F55441"/>
		 <path d="M22.2654 150C25.4229 150 27.9826 147.441 27.9826 144.283C27.9826 141.126 25.4229 138.567 22.2654 138.567C19.1078 138.567 16.5481 141.126 16.5481 144.283C16.5481 147.441 19.1078 150 22.2654 150Z" fill="#F55441"/>
		 <path d="M33.814 150C36.9715 150 39.5312 147.441 39.5312 144.283C39.5312 141.126 36.9715 138.567 33.814 138.567C30.6564 138.567 28.0967 141.126 28.0967 144.283C28.0967 147.441 30.6564 150 33.814 150Z" fill="#F55441"/>
		 <path d="M45.362 150C48.5196 150 51.0793 147.441 51.0793 144.283C51.0793 141.126 48.5196 138.567 45.362 138.567C42.2045 138.567 39.6448 141.126 39.6448 144.283C39.6448 147.441 42.2045 150 45.362 150Z" fill="#F55441"/>
		 <path d="M56.9105 150C60.0681 150 62.6278 147.441 62.6278 144.283C62.6278 141.126 60.0681 138.567 56.9105 138.567C53.7529 138.567 51.1932 141.126 51.1932 144.283C51.1932 147.441 53.7529 150 56.9105 150Z" fill="#F55441"/>
		 <path d="M68.4591 150C71.6167 150 74.1764 147.441 74.1764 144.283C74.1764 141.126 71.6167 138.567 68.4591 138.567C65.3015 138.567 62.7418 141.126 62.7418 144.283C62.7418 147.441 65.3015 150 68.4591 150Z" fill="#F55441"/>
</g>
</svg>
