<?xml version="1.0" encoding="utf-8"?>
<!-- Generator: Adobe Illustrator 25.3.1, SVG Export Plug-In . SVG Version: 6.00 Build 0)  -->
<svg version="1.1" id="Layer_1" xmlns="http://www.w3.org/2000/svg" xmlns:xlink="http://www.w3.org/1999/xlink" x="0px" y="0px"
	 viewBox="0 0 419.5 176" style="enable-background:new 0 0 419.5 176;" xml:space="preserve">
<style type="text/css">
	.st0{fill:none;}
	.st1{fill:#FF5541;}
	.st2{fill:#FFFFFF;}
	.st3{display:none;}
	.st4{display:inline;fill:#FF5541;}
	.st5{display:inline;}
</style>
<g>
	<circle class="st0" cx="29" cy="151.8" r="4.9"/>
	<g>
		<circle class="st1" cx="58.4" cy="34.2" r="4.9"/>
		<circle class="st1" cx="68.2" cy="34.2" r="4.9"/>
		<circle class="st1" cx="78" cy="34.2" r="4.9"/>
		<circle class="st1" cx="87.8" cy="34.2" r="4.9"/>
		<circle class="st1" cx="97.6" cy="34.2" r="4.9"/>
		<circle class="st1" cx="48.6" cy="44" r="2.9"/>
		<circle class="st1" cx="58.4" cy="44" r="4.9"/>
		<circle class="st1" cx="68.2" cy="44" r="4.9"/>
		<circle class="st1" cx="78" cy="44" r="4.9"/>
		<circle class="st1" cx="87.8" cy="44" r="4.9"/>
		<circle class="st1" cx="38.8" cy="53.8" r="2.9"/>
		<circle class="st1" cx="48.6" cy="53.8" r="2.9"/>
		<circle class="st1" cx="58.4" cy="53.8" r="4.9"/>
		<circle class="st1" cx="68.2" cy="53.8" r="4.9"/>
		<circle class="st1" cx="78" cy="53.8" r="4.9"/>
		<circle class="st1" cx="29" cy="63.6" r="2.9"/>
		<circle class="st1" cx="38.8" cy="63.6" r="2.9"/>
		<circle class="st1" cx="48.6" cy="63.6" r="2.9"/>
		<circle class="st1" cx="58.4" cy="63.6" r="4.9"/>
		<circle class="st1" cx="68.2" cy="63.6" r="4.9"/>
		<circle class="st1" cx="29" cy="73.4" r="2.9"/>
		<circle class="st1" cx="38.8" cy="73.4" r="2.9"/>
		<circle class="st1" cx="48.6" cy="73.4" r="2.9"/>
		<circle class="st1" cx="58.4" cy="73.4" r="4.9"/>
		<circle class="st1" cx="29" cy="83.2" r="2.9"/>
		<circle class="st1" cx="38.8" cy="83.2" r="2.9"/>
		<circle class="st1" cx="48.6" cy="83.2" r="2.9"/>
		<circle class="st1" cx="58.4" cy="83.2" r="4.9"/>
		<circle class="st1" cx="68.2" cy="83.2" r="4.9"/>
		<circle class="st1" cx="78" cy="83.2" r="4.9"/>
		<circle class="st1" cx="87.8" cy="83.2" r="4.9"/>
		<circle class="st1" cx="97.6" cy="83.2" r="4.9"/>
		<circle class="st1" cx="29" cy="93" r="2.9"/>
		<circle class="st1" cx="38.8" cy="93" r="2.9"/>
		<circle class="st1" cx="48.6" cy="93" r="2.9"/>
		<circle class="st1" cx="58.4" cy="93" r="4.9"/>
		<circle class="st1" cx="68.2" cy="93" r="4.9"/>
		<circle class="st1" cx="78" cy="93" r="4.9"/>
		<circle class="st1" cx="87.8" cy="93" r="4.9"/>
		<circle class="st1" cx="29" cy="102.8" r="2.9"/>
		<circle class="st1" cx="38.8" cy="102.8" r="2.9"/>
		<circle class="st1" cx="48.6" cy="102.8" r="2.9"/>
		<circle class="st1" cx="58.4" cy="102.8" r="4.9"/>
		<circle class="st1" cx="68.2" cy="102.8" r="4.9"/>
		<circle class="st1" cx="78" cy="102.8" r="4.9"/>
		<circle class="st1" cx="29" cy="112.6" r="2.9"/>
		<circle class="st1" cx="38.8" cy="112.6" r="2.9"/>
		<circle class="st1" cx="48.6" cy="112.6" r="2.9"/>
		<circle class="st1" cx="58.4" cy="112.6" r="4.9"/>
		<circle class="st1" cx="68.2" cy="112.6" r="4.9"/>
		<circle class="st1" cx="29" cy="122.4" r="2.9"/>
		<circle class="st1" cx="38.8" cy="122.4" r="2.9"/>
		<circle class="st1" cx="48.6" cy="122.4" r="2.9"/>
		<circle class="st1" cx="58.4" cy="122.4" r="4.9"/>
		<circle class="st1" cx="29" cy="132.2" r="2.9"/>
		<circle class="st1" cx="38.8" cy="132.2" r="2.9"/>
		<circle class="st1" cx="48.6" cy="132.2" r="2.9"/>
		<circle class="st1" cx="58.4" cy="132.2" r="4.9"/>
		<circle class="st1" cx="68.2" cy="132.2" r="4.9"/>
		<circle class="st1" cx="78" cy="132.2" r="4.9"/>
		<circle class="st1" cx="87.8" cy="132.2" r="4.9"/>
		<circle class="st1" cx="97.6" cy="132.2" r="4.9"/>
		<circle class="st1" cx="29" cy="142" r="2.9"/>
		<circle class="st1" cx="38.8" cy="142" r="2.9"/>
		<circle class="st1" cx="48.6" cy="142" r="4.9"/>
		<circle class="st1" cx="58.4" cy="142" r="4.9"/>
		<circle class="st1" cx="68.2" cy="142" r="4.9"/>
		<circle class="st1" cx="78" cy="142" r="4.9"/>
		<circle class="st1" cx="87.8" cy="142" r="4.9"/>
		<circle class="st1" cx="29" cy="151.8" r="2.9"/>
		<circle class="st1" cx="38.8" cy="151.8" r="4.9"/>
		<circle class="st1" cx="48.6" cy="151.8" r="4.9"/>
		<circle class="st1" cx="58.4" cy="151.8" r="4.9"/>
		<circle class="st1" cx="68.2" cy="151.8" r="4.9"/>
		<circle class="st1" cx="78" cy="151.8" r="4.9"/>
	</g>
	<g>
		<g>
			<polygon class="st2" points="127,112.6 127,63.6 159.2,63.6 159.2,73.4 138.3,73.4 138.3,83.2 156,83.2 156,93 138.3,93
				138.3,102.8 159.2,102.8 159.2,112.6 			"/>
			<polygon class="st2" points="191.6,112.6 182.6,112.6 164.3,63.6 177.3,63.6 188,95.4 188,95.4 199.4,63.6 212,63.6 			"/>
			<g>
				<path class="st2" d="M238.3,62.7c-14.6,0-25.8,11.3-25.8,25.3c0,14,11.2,25.3,25.8,25.3c14.6,0,25.8-11.3,25.8-25.3
					C264.2,74.1,253,62.7,238.3,62.7z M238.3,103.6c-8,0-13.8-6.9-13.8-15.5c0-8.7,5.8-15.5,13.8-15.5c8,0,13.8,6.9,13.8,15.5
					C252.1,96.8,246.3,103.6,238.3,103.6z"/>
			</g>
			<polygon class="st2" points="272.7,112.6 272.7,63.6 284.1,63.6 284.1,102.8 303.7,102.8 303.7,112.6 			"/>
			<polygon class="st2" points="328.3,112.6 319.3,112.6 301,63.6 314,63.6 324.7,95.4 324.8,95.4 336.2,63.6 348.7,63.6 			"/>
		</g>
		<g>
			<path class="st1" d="M372.8,93l-1.6-5h-9.8l-1.8,5h-7.5l12.2-29.4h5.3l11,29.4H372.8z M362.9,82.9h6.8l-3.3-9.3h0L362.9,82.9z"/>
			<path class="st1" d="M384.2,93V63.6h6.8V93H384.2z"/>
		</g>
	</g>
	<g class="st3">
		<path class="st4" d="M112.3,29.3c-2.7,0-4.9,2.2-4.9,4.9c0,2.7,2.2,4.9,4.9,4.9s4.9-2.2,4.9-4.9C117.2,31.5,115,29.3,112.3,29.3z
			 M112.3,38.1c-2.1,0-3.9-1.7-3.9-3.9c0-2.1,1.7-3.9,3.9-3.9s3.9,1.7,3.9,3.9C116.1,36.3,114.4,38.1,112.3,38.1z"/>
		<g class="st5">
			<path class="st1" d="M110.5,31.8h1.6c0.8,0,1.8,0.4,1.8,1.5c0,0.7-0.5,1.1-1,1.4c0.4,0.6,1.1,1.6,1.5,2H113l-1.3-1.9h0v1.9h-1.1
				V31.8z M111.7,33.8h0.3c0.5,0,0.8-0.2,0.8-0.5c0-0.3-0.3-0.6-0.7-0.6h-0.4V33.8z"/>
		</g>
	</g>
</g>
</svg>
